{
.appVersion = "3124";
DisplayStrings = (
"/kaf-ar/noon-ar/space/feh-ar/yeh-ar/kaf-ar/waw-ar/noon-ar \012dlroW/space olleH"
);
customParameters = (
{
name = Axes;
value = (
{
Name = Weight;
Tag = wght;
}
);
}
);
date = "2021-04-17 17:06:30 +0000";
familyName = "Hasubi Mono";
fontMaster = (
{
alignmentZones = (
"{704, 16}",
"{704, 16}",
"{512, 16}",
"{0, -16}",
"{-256, -16}"
);
ascender = 704;
capHeight = 704;
descender = -256;
id = m01;
weightValue = 80;
xHeight = 512;
},
{
ascender = 832;
capHeight = 768;
custom = Heavy;
descender = -256;
iconName = Bold;
id = "4FBB1917-F682-4041-B654-F2E0D2EF1242";
weightValue = 128;
xHeight = 600;
}
);
glyphs = (
{
color = 5;
glyphname = A;
lastChange = "2022-04-27 22:08:35 +0000";
layers = (
{
layerId = m01;
paths = (
{
closed = 1;
nodes = (
"259 650 LINE",
"313 282 LINE",
"198 282 LINE"
);
},
{
closed = 1;
nodes = (
"148 0 LINE",
"178 176 LINE",
"332 176 LINE",
"359 0 LINE",
"488 0 LINE",
"338 768 LINE",
"174 768 LINE",
"24 0 LINE"
);
}
);
width = 512;
},
{
layerId = "4FBB1917-F682-4041-B654-F2E0D2EF1242";
width = 600;
}
);
unicode = 0041;
},
{
color = 5;
glyphname = C;
lastChange = "2022-04-27 22:08:35 +0000";
layers = (
{
layerId = m01;
paths = (
{
closed = 1;
nodes = (
"398 -10 OFFCURVE",
"474 76 OFFCURVE",
"474 207 CURVE SMOOTH",
"474 274 LINE",
"339 274 LINE",
"339 239 LINE SMOOTH",
"339 141 OFFCURVE",
"321 96 OFFCURVE",
"266 96 CURVE SMOOTH",
"199 96 OFFCURVE",
"176 149 OFFCURVE",
"176 270 CURVE SMOOTH",
"176 494 LINE SMOOTH",
"176 626 OFFCURVE",
"196 672 OFFCURVE",
"261 672 CURVE SMOOTH",
"324 672 OFFCURVE",
"346 626 OFFCURVE",
"346 552 CURVE SMOOTH",
"346 492 LINE",
"476 491 LINE",
"476 557 LINE SMOOTH",
"476 711 OFFCURVE",
"397 778 OFFCURVE",
"263 778 CURVE SMOOTH",
"115 778 OFFCURVE",
"40 684 OFFCURVE",
"40 500 CURVE SMOOTH",
"40 265 LINE SMOOTH",
"40 84 OFFCURVE",
"111 -10 OFFCURVE",
"268 -10 CURVE SMOOTH"
);
}
);
width = 512;
},
{
layerId = "4FBB1917-F682-4041-B654-F2E0D2EF1242";
width = 600;
}
);
unicode = 0043;
},
{
color = 5;
glyphname = D;
lastChange = "2022-04-27 22:08:35 +0000";
layers = (
{
layerId = m01;
paths = (
{
closed = 1;
nodes = (
"255 0 LINE SMOOTH",
"415 0 OFFCURVE",
"480 109 OFFCURVE",
"480 277 CURVE SMOOTH",
"480 519 LINE SMOOTH",
"480 690 OFFCURVE",
"394 800 OFFCURVE",
"255 800 CURVE SMOOTH",
"32 800 LINE",
"32 0 LINE"
);
},
{
closed = 1;
nodes = (
"168 694 LINE",
"243 694 LINE SMOOTH",
"314 694 OFFCURVE",
"344 645 OFFCURVE",
"344 514 CURVE SMOOTH",
"344 283 LINE SMOOTH",
"344 155 OFFCURVE",
"314 106 OFFCURVE",
"243 106 CURVE SMOOTH",
"168 106 LINE"
);
}
);
width = 512;
},
{
layerId = "4FBB1917-F682-4041-B654-F2E0D2EF1242";
width = 600;
}
);
unicode = 0044;
},
{
color = 5;
glyphname = E;
lastChange = "2022-04-27 22:08:35 +0000";
layers = (
{
layerId = m01;
paths = (
{
closed = 1;
nodes = (
"472 0 LINE",
"472 96 LINE",
"120 96 LINE",
"120 362 LINE",
"440 361 LINE",
"440 457 LINE",
"120 458 LINE",
"120 672 LINE",
"472 672 LINE",
"472 768 LINE",
"40 768 LINE",
"40 0 LINE"
);
}
);
width = 512;
},
{
layerId = "4FBB1917-F682-4041-B654-F2E0D2EF1242";
paths = (
{
closed = 1;
nodes = (
"464 0 LINE",
"472 8 LINE",
"472 200 LINE",
"464 208 LINE",
"176 208 LINE",
"168 216 LINE",
"168 280 LINE",
"176 288 LINE",
"440 288 LINE",
"440 480 LINE",
"168 480 LINE",
"168 560 LINE",
"472 560 LINE",
"472 768 LINE",
"40 768 LINE",
"40 8 LINE",
"48 0 LINE"
);
}
);
width = 512;
}
);
unicode = 0045;
},
{
color = 5;
glyphname = F;
lastChange = "2022-04-27 22:08:35 +0000";
layers = (
{
layerId = m01;
paths = (
{
closed = 1;
nodes = (
"120 0 LINE",
"120 362 LINE",
"440 361 LINE",
"440 457 LINE",
"120 458 LINE",
"120 672 LINE",
"472 672 LINE",
"472 768 LINE",
"40 768 LINE",
"40 0 LINE"
);
}
);
width = 512;
},
{
layerId = "4FBB1917-F682-4041-B654-F2E0D2EF1242";
paths = (
{
closed = 1;
nodes = (
"168 0 LINE",
"168 288 LINE",
"440 288 LINE",
"440 480 LINE",
"168 480 LINE",
"168 560 LINE",
"472 560 LINE",
"472 768 LINE",
"40 768 LINE",
"40 0 LINE"
);
}
);
width = 512;
}
);
unicode = 0046;
},
{
color = 5;
glyphname = G;
lastChange = "2022-04-27 22:08:35 +0000";
layers = (
{
layerId = m01;
paths = (
{
closed = 1;
nodes = (
"320 -9 OFFCURVE",
"384 56 OFFCURVE",
"390 136 CURVE",
"401 0 LINE",
"476 0 LINE",
"474 390 LINE",
"259 390 LINE",
"259 297 LINE",
"345 297 LINE",
"345 203 LINE SMOOTH",
"345 132 OFFCURVE",
"299 96 OFFCURVE",
"248 96 CURVE SMOOTH",
"176 96 OFFCURVE",
"158 152 OFFCURVE",
"158 265 CURVE SMOOTH",
"158 502 LINE SMOOTH",
"158 615 OFFCURVE",
"179 672 OFFCURVE",
"248 672 CURVE SMOOTH",
"308 672 OFFCURVE",
"333 649 OFFCURVE",
"333 571 CURVE SMOOTH",
"333 517 LINE",
"464 516 LINE",
"463 589 LINE SMOOTH",
"461 718 OFFCURVE",
"378 778 OFFCURVE",
"248 778 CURVE SMOOTH",
"105 778 OFFCURVE",
"22 680 OFFCURVE",
"22 507 CURVE SMOOTH",
"22 260 LINE SMOOTH",
"22 95 OFFCURVE",
"99 -12 OFFCURVE",
"248 -10 CURVE SMOOTH"
);
}
);
width = 512;
},
{
layerId = "4FBB1917-F682-4041-B654-F2E0D2EF1242";
width = 600;
}
);
unicode = 0047;
},
{
color = 5;
glyphname = H;
lastChange = "2022-04-30 03:38:09 +0000";
layers = (
{
layerId = m01;
paths = (
{
closed = 1;
nodes = (
"128 0 LINE",
"136 8 LINE",
"136 311 LINE",
"144 319 LINE",
"368 319 LINE",
"376 311 LINE",
"376 8 LINE",
"384 0 LINE",
"440 0 LINE",
"448 8 LINE",
"448 696 LINE",
"440 704 LINE",
"384 704 LINE",
"376 696 LINE",
"376 407 LINE",
"368 399 LINE",
"144 399 LINE",
"136 407 LINE",
"136 696 LINE",
"128 704 LINE",
"72 704 LINE",
"64 696 LINE",
"64 8 LINE",
"72 0 LINE"
);
}
);
width = 512;
},
{
layerId = "4FBB1917-F682-4041-B654-F2E0D2EF1242";
width = 600;
}
);
unicode = 0048;
},
{
color = 5;
glyphname = I;
lastChange = "2022-04-27 22:08:35 +0000";
layers = (
{
layerId = m01;
paths = (
{
closed = 1;
nodes = (
"472 0 LINE",
"472 88 LINE",
"295 88 LINE",
"295 680 LINE",
"472 680 LINE",
"472 768 LINE",
"40 768 LINE",
"40 680 LINE",
"215 680 LINE",
"215 88 LINE",
"40 88 LINE",
"40 0 LINE"
);
}
);
width = 512;
},
{
layerId = "4FBB1917-F682-4041-B654-F2E0D2EF1242";
width = 600;
}
);
unicode = 0049;
},
{
color = 5;
glyphname = J;
lastChange = "2022-04-27 22:08:35 +0000";
layers = (
{
layerId = m01;
paths = (
{
closed = 1;
nodes = (
"406 -10 OFFCURVE",
"475 82 OFFCURVE",
"475 245 CURVE SMOOTH",
"475 768 LINE",
"171 768 LINE",
"171 662 LINE",
"339 662 LINE",
"339 240 LINE SMOOTH",
"339 136 OFFCURVE",
"309 96 OFFCURVE",
"257 96 CURVE SMOOTH",
"199 96 OFFCURVE",
"170 138 OFFCURVE",
"170 215 CURVE SMOOTH",
"170 276 LINE",
"37 276 LINE",
"37 199 LINE SMOOTH",
"37 80 OFFCURVE",
"98 -10 OFFCURVE",
"259 -10 CURVE SMOOTH"
);
}
);
width = 512;
},
{
layerId = "4FBB1917-F682-4041-B654-F2E0D2EF1242";
width = 600;
}
);
unicode = 004A;
},
{
color = 5;
glyphname = K;
lastChange = "2022-04-27 22:08:35 +0000";
layers = (
{
layerId = m01;
paths = (
{
closed = 1;
nodes = (
"330 0 LINE",
"480 0 LINE",
"307 412 LINE",
"482 768 LINE",
"331 768 LINE",
"201 455 LINE",
"173 455 LINE",
"173 768 LINE",
"37 768 LINE",
"37 0 LINE",
"173 0 LINE",
"173 348 LINE",
"204 348 LINE"
);
}
);
width = 512;
},
{
layerId = "4FBB1917-F682-4041-B654-F2E0D2EF1242";
width = 600;
}
);
unicode = 004B;
},
{
color = 5;
glyphname = L;
lastChange = "2022-04-27 22:08:35 +0000";
layers = (
{
layerId = m01;
paths = (
{
closed = 1;
nodes = (
"458 0 LINE",
"458 96 LINE",
"140 96 LINE",
"140 768 LINE",
"60 768 LINE",
"60 0 LINE"
);
}
);
width = 512;
},
{
layerId = "4FBB1917-F682-4041-B654-F2E0D2EF1242";
width = 600;
}
);
unicode = 004C;
},
{
color = 5;
glyphname = M;
lastChange = "2022-04-27 22:08:35 +0000";
layers = (
{
layerId = m01;
paths = (
{
closed = 1;
nodes = (
"120 0 LINE",
"118 627 LINE",
"217 223 LINE",
"294 223 LINE",
"396 623 LINE",
"393 0 LINE",
"471 0 LINE",
"472 768 LINE",
"375 768 LINE",
"258 327 LINE",
"141 768 LINE",
"40 768 LINE",
"40 0 LINE"
);
}
);
width = 512;
},
{
layerId = "4FBB1917-F682-4041-B654-F2E0D2EF1242";
width = 600;
}
);
unicode = 004D;
},
{
color = 5;
glyphname = N;
lastChange = "2022-04-27 22:08:35 +0000";
layers = (
{
layerId = m01;
paths = (
{
closed = 1;
nodes = (
"473 768 LINE",
"357 768 LINE",
"357 180 LINE",
"188 768 LINE",
"37 768 LINE",
"37 0 LINE",
"153 0 LINE",
"153 580 LINE",
"311 0 LINE",
"473 0 LINE"
);
}
);
width = 512;
},
{
layerId = "4FBB1917-F682-4041-B654-F2E0D2EF1242";
width = 600;
}
);
unicode = 004E;
},
{
color = 5;
glyphname = O;
lastChange = "2022-04-27 22:08:35 +0000";
layers = (
{
layerId = m01;
paths = (
{
closed = 1;
nodes = (
"399 -10 OFFCURVE",
"477 88 OFFCURVE",
"477 259 CURVE SMOOTH",
"477 505 LINE SMOOTH",
"477 678 OFFCURVE",
"399 778 OFFCURVE",
"256 778 CURVE SMOOTH",
"115 778 OFFCURVE",
"35 678 OFFCURVE",
"35 505 CURVE SMOOTH",
"35 259 LINE SMOOTH",
"35 88 OFFCURVE",
"113 -10 OFFCURVE",
"256 -10 CURVE SMOOTH"
);
},
{
closed = 1;
nodes = (
"185 96 OFFCURVE",
"171 185 OFFCURVE",
"171 265 CURVE SMOOTH",
"171 500 LINE SMOOTH",
"171 577 OFFCURVE",
"182 672 OFFCURVE",
"256 672 CURVE SMOOTH",
"329 672 OFFCURVE",
"341 583 OFFCURVE",
"341 500 CURVE SMOOTH",
"341 265 LINE SMOOTH",
"341 185 OFFCURVE",
"330 96 OFFCURVE",
"256 96 CURVE SMOOTH"
);
}
);
width = 512;
},
{
layerId = "4FBB1917-F682-4041-B654-F2E0D2EF1242";
width = 600;
}
);
unicode = 004F;
},
{
color = 5;
glyphname = P;
lastChange = "2022-04-27 22:08:35 +0000";
layers = (
{
layerId = m01;
paths = (
{
closed = 1;
nodes = (
"127 0 LINE",
"127 294 LINE",
"267 294 LINE SMOOTH",
"410 294 OFFCURVE",
"477 365 OFFCURVE",
"477 509 CURVE SMOOTH",
"477 565 LINE SMOOTH",
"477 709 OFFCURVE",
"405.667 768 OFFCURVE",
"267 768 CURVE SMOOTH",
"47 768 LINE",
"47 0 LINE"
);
},
{
closed = 1;
nodes = (
"127 672 LINE",
"258 672 LINE SMOOTH",
"366 672 OFFCURVE",
"397 650 OFFCURVE",
"397 567 CURVE SMOOTH",
"397 518 LINE SMOOTH",
"397 435 OFFCURVE",
"366 390 OFFCURVE",
"258 390 CURVE SMOOTH",
"127 390 LINE"
);
}
);
width = 512;
},
{
layerId = "4FBB1917-F682-4041-B654-F2E0D2EF1242";
width = 600;
}
);
unicode = 0050;
},
{
color = 5;
glyphname = T;
lastChange = "2022-04-27 22:08:35 +0000";
layers = (
{
layerId = m01;
paths = (
{
closed = 1;
nodes = (
"295 0 LINE",
"295 672 LINE",
"472 672 LINE",
"472 768 LINE",
"40 768 LINE",
"40 672 LINE",
"215 672 LINE",
"215 0 LINE"
);
}
);
width = 512;
},
{
layerId = "4FBB1917-F682-4041-B654-F2E0D2EF1242";
width = 600;
}
);
unicode = 0054;
},
{
color = 5;
glyphname = U;
lastChange = "2022-04-27 22:08:35 +0000";
layers = (
{
layerId = m01;
paths = (
{
closed = 1;
nodes = (
"388 -8 OFFCURVE",
"452 68 OFFCURVE",
"452 257 CURVE SMOOTH",
"452 768 LINE",
"372 768 LINE",
"372 251 LINE SMOOTH",
"372 121 OFFCURVE",
"333 85 OFFCURVE",
"256 85 CURVE SMOOTH",
"179 85 OFFCURVE",
"140 121 OFFCURVE",
"140 251 CURVE SMOOTH",
"140 768 LINE",
"60 768 LINE",
"60 257 LINE SMOOTH",
"60 68 OFFCURVE",
"123 -8 OFFCURVE",
"256 -8 CURVE SMOOTH"
);
}
);
width = 512;
},
{
layerId = "4FBB1917-F682-4041-B654-F2E0D2EF1242";
width = 600;
}
);
unicode = 0055;
},
{
color = 5;
glyphname = W;
lastChange = "2022-04-30 04:36:18 +0000";
layers = (
{
layerId = m01;
paths = (
{
closed = 1;
nodes = (
"503 696 LINE",
"495 704 LINE",
"445 704 LINE",
"437 696 LINE",
"385 142 LINE",
"371 142 LINE",
"299 512 LINE",
"216 512 LINE",
"146 142 LINE",
"128 142 LINE",
"79 704 LINE",
"10 704 LINE",
"82 0 LINE",
"169 0 LINE",
"248 390 LINE",
"264 390 LINE",
"345 0 LINE",
"431 0 LINE"
);
}
);
width = 512;
},
{
layerId = "4FBB1917-F682-4041-B654-F2E0D2EF1242";
width = 600;
},
{
associatedMasterId = m01;
layerId = "F96D6379-8284-4D80-B73F-2FC2F49626FE";
name = "Apr 29, 22, 18:58";
paths = (
{
closed = 1;
nodes = (
"503 800 LINE",
"421 800 LINE",
"373 151 LINE",
"299 600 LINE",
"216 600 LINE",
"144 150 LINE",
"95 800 LINE",
"10 800 LINE",
"90 0 LINE",
"177 0 LINE",
"256 478 LINE",
"337 0 LINE",
"423 0 LINE"
);
}
);
width = 512;
},
{
associatedMasterId = m01;
layerId = "FF965F9E-86FF-49B9-BD5E-2F1C630C56FD";
name = "Apr 29, 22, 20:52";
paths = (
{
closed = 1;
nodes = (
"464 0 LINE",
"472 8 LINE",
"472 696 LINE",
"464 704 LINE",
"408 704 LINE",
"400 696 LINE",
"400 88 LINE",
"392 80 LINE",
"304 80 LINE",
"296 88 LINE",
"296 504 LINE",
"288 512 LINE",
"232 512 LINE",
"224 504 LINE",
"224 88 LINE",
"216 80 LINE",
"120 80 LINE",
"112 88 LINE",
"112 696 LINE",
"104 704 LINE",
"48 704 LINE",
"40 696 LINE",
"40 8 LINE",
"48 0 LINE"
);
}
);
width = 512;
}
);
unicode = 0057;
},
{
color = 5;
glyphname = c;
lastChange = "2022-04-27 22:08:46 +0000";
layers = (
{
layerId = m01;
width = 512;
},
{
layerId = "4FBB1917-F682-4041-B654-F2E0D2EF1242";
paths = (
{
closed = 1;
nodes = (
"373 -8 OFFCURVE",
"450 53 OFFCURVE",
"450 164 CURVE SMOOTH",
"450 228 LINE",
"442 236 LINE",
"330 236 LINE",
"322 228 LINE",
"322 203 LINE SMOOTH",
"322 166 OFFCURVE",
"292 152 OFFCURVE",
"257 152 CURVE SMOOTH",
"210 152 OFFCURVE",
"190 166 OFFCURVE",
"190 203 CURVE SMOOTH",
"190 403 LINE SMOOTH",
"190 430 OFFCURVE",
"209 440 OFFCURVE",
"256 440 CURVE SMOOTH",
"301 440 OFFCURVE",
"322 429 OFFCURVE",
"322 403 CURVE SMOOTH",
"322 370 LINE",
"330 362 LINE",
"442 362 LINE",
"450 370 LINE",
"450 407 LINE SMOOTH",
"450 563 OFFCURVE",
"372 608 OFFCURVE",
"256 608 CURVE SMOOTH",
"143 608 OFFCURVE",
"62 556 OFFCURVE",
"62 407 CURVE SMOOTH",
"62 198 LINE SMOOTH",
"62 61 OFFCURVE",
"137 -8 OFFCURVE",
"257 -8 CURVE SMOOTH"
);
}
);
width = 512;
}
);
unicode = 0063;
},
{
glyphname = d;
lastChange = "2022-04-30 05:20:25 +0000";
layers = (
{
layerId = m01;
paths = (
{
closed = 1;
nodes = (
"184 60 OFFCURVE",
"133 97 OFFCURVE",
"133 196 CURVE SMOOTH",
"133 308 LINE SMOOTH",
"133 405 OFFCURVE",
"187 448 OFFCURVE",
"265 448 CURVE SMOOTH",
"334 448 OFFCURVE",
"376 404 OFFCURVE",
"376 308 CURVE SMOOTH",
"376 196 LINE SMOOTH",
"376 112 OFFCURVE",
"339 60 OFFCURVE",
"249 60 CURVE SMOOTH"
);
},
{
closed = 1;
nodes = (
"285 -8 OFFCURVE",
"328 15 OFFCURVE",
"368 54 CURVE",
"376 54 LINE",
"376 0 LINE",
"448 0 LINE",
"448 704 LINE",
"376 704 LINE",
"376 466 LINE",
"368 466 LINE",
"334 500 OFFCURVE",
"305 520 OFFCURVE",
"249 520 CURVE SMOOTH",
"143 520 OFFCURVE",
"61 443 OFFCURVE",
"61 310 CURVE SMOOTH",
"61 202 LINE SMOOTH",
"61 35 OFFCURVE",
"129 -8 OFFCURVE",
"225 -8 CURVE SMOOTH"
);
}
);
width = 512;
},
{
layerId = "4FBB1917-F682-4041-B654-F2E0D2EF1242";
width = 600;
}
);
unicode = 0064;
},
{
color = 5;
glyphname = e;
lastChange = "2022-04-30 03:38:01 +0000";
layers = (
{
layerId = m01;
paths = (
{
closed = 1;
nodes = (
"375 -8 OFFCURVE",
"444 55 OFFCURVE",
"444 142 CURVE SMOOTH",
"444 164 LINE",
"436 172 LINE",
"380 172 LINE",
"372 164 LINE",
"372 155 LINE SMOOTH",
"372 90 OFFCURVE",
"326 72 OFFCURVE",
"259 72 CURVE SMOOTH",
"188 72 OFFCURVE",
"141 123 OFFCURVE",
"141 216 CURVE SMOOTH",
"141 239 LINE",
"149 247 LINE",
"436 247 LINE",
"444 255 LINE",
"444 332 LINE SMOOTH",
"444 472 OFFCURVE",
"374 520 OFFCURVE",
"258 520 CURVE SMOOTH",
"145 520 OFFCURVE",
"69 460 OFFCURVE",
"69 327 CURVE SMOOTH",
"69 198 LINE SMOOTH",
"69 61 OFFCURVE",
"145 -8 OFFCURVE",
"259 -8 CURVE SMOOTH"
);
},
{
closed = 1;
nodes = (
"141 327 LINE",
"141 344 LINE SMOOTH",
"141 403 OFFCURVE",
"179 440 OFFCURVE",
"258 440 CURVE SMOOTH",
"327 440 OFFCURVE",
"372 412 OFFCURVE",
"372 344 CURVE SMOOTH",
"372 327 LINE",
"364 319 LINE",
"149 319 LINE"
);
}
);
width = 512;
},
{
layerId = "4FBB1917-F682-4041-B654-F2E0D2EF1242";
paths = (
{
closed = 1;
nodes = (
"373 -8 OFFCURVE",
"450 53 OFFCURVE",
"450 164 CURVE SMOOTH",
"450 228 LINE",
"442 236 LINE",
"330 236 LINE",
"322 228 LINE",
"322 203 LINE SMOOTH",
"322 166 OFFCURVE",
"292 152 OFFCURVE",
"257 152 CURVE SMOOTH",
"210 152 OFFCURVE",
"190 166 OFFCURVE",
"190 203 CURVE SMOOTH",
"190 274 LINE",
"198 282 LINE",
"442 282 LINE",
"450 290 LINE",
"450 407 LINE SMOOTH",
"450 563 OFFCURVE",
"372 608 OFFCURVE",
"256 608 CURVE SMOOTH",
"143 608 OFFCURVE",
"62 556 OFFCURVE",
"62 407 CURVE SMOOTH",
"62 198 LINE SMOOTH",
"62 61 OFFCURVE",
"137 -8 OFFCURVE",
"257 -8 CURVE SMOOTH"
);
},
{
closed = 1;
nodes = (
"190 394 LINE",
"190 403 LINE SMOOTH",
"190 430 OFFCURVE",
"209 440 OFFCURVE",
"256 440 CURVE SMOOTH",
"301 440 OFFCURVE",
"322 430 OFFCURVE",
"322 403 CURVE SMOOTH",
"322 394 LINE",
"314 386 LINE",
"198 386 LINE"
);
}
);
width = 512;
}
);
unicode = 0065;
},
{
color = 5;
glyphname = i;
lastChange = "2022-04-29 22:27:12 +0000";
layers = (
{
layerId = m01;
paths = (
{
closed = 1;
nodes = (
"315 595 LINE",
"315 720 LINE",
"210 720 LINE",
"210 595 LINE"
);
},
{
closed = 1;
nodes = (
"453 0 LINE",
"461 8 LINE",
"461 72 LINE",
"453 80 LINE",
"314 80 LINE",
"314 496 LINE",
"76 496 LINE",
"76 416 LINE",
"242 416 LINE",
"242 80 LINE",
"76 80 LINE",
"76 0 LINE"
);
}
);
width = 512;
},
{
layerId = "4FBB1917-F682-4041-B654-F2E0D2EF1242";
width = 600;
}
);
unicode = 0069;
},
{
color = 5;
glyphname = l;
lastChange = "2022-04-30 03:37:39 +0000";
layers = (
{
layerId = m01;
paths = (
{
closed = 1;
nodes = (
"448 0 LINE",
"456 8 LINE",
"456 72 LINE",
"448 80 LINE",
"298 80 LINE",
"290 88 LINE",
"290 696 LINE",
"282 704 LINE",
"40 704 LINE",
"32 696 LINE",
"32 632 LINE",
"40 624 LINE",
"210 624 LINE",
"218 616 LINE",
"218 88 LINE",
"210 80 LINE",
"40 80 LINE",
"32 72 LINE",
"32 8 LINE",
"40 0 LINE"
);
}
);
width = 512;
},
{
layerId = "4FBB1917-F682-4041-B654-F2E0D2EF1242";
width = 600;
}
);
unicode = 006C;
},
{
color = 5;
glyphname = m;
lastChange = "2022-04-27 22:08:46 +0000";
layers = (
{
layerId = m01;
paths = (
{
closed = 1;
nodes = (
"114 0 LINE",
"114 441 LINE SMOOTH",
"114 506 OFFCURVE",
"136 534 OFFCURVE",
"168 534 CURVE SMOOTH",
"199 534 OFFCURVE",
"213 498 OFFCURVE",
"213 459 CURVE SMOOTH",
"213 0 LINE",
"293 0 LINE",
"293 441 LINE SMOOTH",
"293 512 OFFCURVE",
"309 534 OFFCURVE",
"340 534 CURVE SMOOTH",
"361 534 OFFCURVE",
"388 516 OFFCURVE",
"388 459 CURVE SMOOTH",
"388 0 LINE",
"468 0 LINE",
"468 469 LINE SMOOTH",
"468 561 OFFCURVE",
"433 611 OFFCURVE",
"382 611 CURVE SMOOTH",
"341 611 OFFCURVE",
"325 583 OFFCURVE",
"308 562 CURVE",
"290 562 LINE",
"279 583 OFFCURVE",
"253.667 611 OFFCURVE",
"215 611 CURVE SMOOTH",
"177.667 611 OFFCURVE",
"156 583 OFFCURVE",
"139 554 CURVE",
"122 554 LINE",
"122 600 LINE",
"34 600 LINE",
"34 0 LINE"
);
}
);
width = 512;
},
{
layerId = "4FBB1917-F682-4041-B654-F2E0D2EF1242";
width = 600;
}
);
unicode = 006D;
},
{
color = 5;
glyphname = n;
lastChange = "2022-04-27 22:08:46 +0000";
layers = (
{
layerId = m01;
paths = (
{
closed = 1;
nodes = (
"148 0 LINE",
"148 401 LINE SMOOTH",
"148 479 OFFCURVE",
"217 524 OFFCURVE",
"274 524 CURVE SMOOTH",
"326 524 OFFCURVE",
"364 484 OFFCURVE",
"364 404 CURVE SMOOTH",
"364 0 LINE",
"444 0 LINE",
"444 421 LINE SMOOTH",
"444 540 OFFCURVE",
"392 608 OFFCURVE",
"305 608 CURVE SMOOTH",
"242 608 OFFCURVE",
"194 577 OFFCURVE",
"165 522 CURVE",
"148 522 LINE",
"148 600 LINE",
"68 600 LINE",
"68 0 LINE"
);
}
);
width = 512;
},
{
layerId = "4FBB1917-F682-4041-B654-F2E0D2EF1242";
width = 600;
}
);
unicode = 006E;
},
{
color = 5;
glyphname = o;
lastChange = "2022-04-30 03:37:50 +0000";
layers = (
{
layerId = m01;
paths = (
{
closed = 1;
nodes = (
"379 -8 OFFCURVE",
"442 64 OFFCURVE",
"442 198 CURVE SMOOTH",
"442 312 LINE SMOOTH",
"442 451 OFFCURVE",
"379 520 OFFCURVE",
"256 520 CURVE SMOOTH",
"132 520 OFFCURVE",
"70 451 OFFCURVE",
"70 311 CURVE SMOOTH",
"70 198 LINE SMOOTH",
"70 64 OFFCURVE",
"132 -8 OFFCURVE",
"256 -8 CURVE SMOOTH"
);
},
{
closed = 1;
nodes = (
"187 72 OFFCURVE",
"142 98 OFFCURVE",
"142 198 CURVE SMOOTH",
"142 311 LINE SMOOTH",
"142 412 OFFCURVE",
"187 440 OFFCURVE",
"256 440 CURVE SMOOTH",
"324 440 OFFCURVE",
"370 413 OFFCURVE",
"370 312 CURVE SMOOTH",
"370 198 LINE SMOOTH",
"370 98 OFFCURVE",
"324 72 OFFCURVE",
"256 72 CURVE SMOOTH"
);
}
);
width = 512;
},
{
layerId = "4FBB1917-F682-4041-B654-F2E0D2EF1242";
paths = (
{
closed = 1;
nodes = (
"379 -8 OFFCURVE",
"450 66 OFFCURVE",
"450 198 CURVE SMOOTH",
"450 400 LINE SMOOTH",
"450 533 OFFCURVE",
"379 608 OFFCURVE",
"256 608 CURVE SMOOTH",
"132 608 OFFCURVE",
"62 534 OFFCURVE",
"62 399 CURVE SMOOTH",
"62 197 LINE SMOOTH",
"62 65 OFFCURVE",
"132 -8 OFFCURVE",
"256 -8 CURVE SMOOTH"
);
},
{
closed = 1;
nodes = (
"187 88 OFFCURVE",
"142 107 OFFCURVE",
"142 195 CURVE SMOOTH",
"142 400 LINE SMOOTH",
"142 488 OFFCURVE",
"187 512 OFFCURVE",
"256 512 CURVE SMOOTH",
"324 512 OFFCURVE",
"370 488 OFFCURVE",
"370 400 CURVE SMOOTH",
"370 195 LINE SMOOTH",
"370 107 OFFCURVE",
"324 88 OFFCURVE",
"256 88 CURVE SMOOTH"
);
}
);
width = 512;
}
);
unicode = 006F;
},
{
color = 5;
glyphname = r;
lastChange = "2022-04-30 04:26:48 +0000";
layers = (
{
layerId = m01;
paths = (
{
closed = 1;
nodes = (
"170 0 LINE",
"178 8 LINE",
"178 315 LINE SMOOTH",
"178 410 OFFCURVE",
"249 436 OFFCURVE",
"309 436 CURVE SMOOTH",
"369 436 OFFCURVE",
"402 394 OFFCURVE",
"402 329 CURVE SMOOTH",
"402 306 LINE",
"410 298 LINE",
"474 298 LINE",
"482 306 LINE",
"482 362 LINE SMOOTH",
"482 457 OFFCURVE",
"423 520 OFFCURVE",
"340 520 CURVE SMOOTH",
"271 520 OFFCURVE",
"227 492 OFFCURVE",
"186 440 CURVE",
"178 440 LINE",
"178 504 LINE",
"170 512 LINE",
"114 512 LINE",
"106 504 LINE",
"106 8 LINE",
"114 0 LINE"
);
}
);
width = 512;
},
{
layerId = "4FBB1917-F682-4041-B654-F2E0D2EF1242";
width = 600;
}
);
unicode = 0072;
},
{
color = 5;
glyphname = t;
lastChange = "2022-04-27 22:08:46 +0000";
layers = (
{
layerId = m01;
paths = (
{
closed = 1;
nodes = (
"456 0 LINE",
"457 96 LINE",
"383 96 LINE SMOOTH",
"328.333 96 OFFCURVE",
"290 117 OFFCURVE",
"290 193 CURVE SMOOTH",
"290 504 LINE",
"474 504 LINE",
"474 600 LINE",
"290 600 LINE",
"290 800 LINE",
"210 800 LINE",
"210 600 LINE",
"71 600 LINE",
"71 504 LINE",
"210 504 LINE",
"210 181 LINE SMOOTH",
"210 65 OFFCURVE",
"275 0 OFFCURVE",
"383 0 CURVE SMOOTH"
);
}
);
width = 512;
},
{
layerId = "4FBB1917-F682-4041-B654-F2E0D2EF1242";
width = 600;
}
);
unicode = 0074;
},
{
glyphname = "hamza-ar";
lastChange = "2022-04-26 20:00:38 +0000";
layers = (
{
layerId = m01;
paths = (
{
closed = 1;
nodes = (
"121 274 LINE",
"230 316 LINE",
"137 345 LINE",
"115 412 LINE",
"199 469 LINE",
"360 446 LINE",
"323 395 LINE",
"245 415 LINE",
"196 406 LINE",
"267 330 LINE",
"337 341 LINE",
"360 288 LINE",
"157 214 LINE"
);
}
);
width = 512;
},
{
layerId = "4FBB1917-F682-4041-B654-F2E0D2EF1242";
width = 600;
}
);
unicode = 0621;
},
{
glyphname = "alef-ar";
lastChange = "2022-04-29 20:45:50 +0000";
layers = (
{
anchors = (
{
name = bottom;
position = "{166, 0}";
},
{
name = top;
position = "{169, 768}";
}
);
layerId = m01;
paths = (
{
closed = 1;
nodes = (
"192 0 LINE",
"200 8 LINE",
"200 760 LINE",
"192 768 LINE",
"136 768 LINE",
"128 760 LINE",
"128 8 LINE",
"136 0 LINE"
);
}
);
width = 512;
},
{
layerId = "4FBB1917-F682-4041-B654-F2E0D2EF1242";
paths = (
{
closed = 1;
nodes = (
"360 0 LINE",
"368 8 LINE",
"368 760 LINE",
"360 768 LINE",
"248 768 LINE",
"240 760 LINE",
"240 8 LINE",
"248 0 LINE"
);
}
);
width = 600;
}
);
unicode = 0627;
},
{
glyphname = "alef-ar.fina";
lastChange = "2022-04-30 02:42:18 +0000";
layers = (
{
anchors = (
{
name = bottom;
position = "{300, 0}";
},
{
name = top;
position = "{240, 768}";
}
);
layerId = m01;
paths = (
{
closed = 1;
nodes = (
"512 0 LINE",
"512 96 LINE",
"320 96 LINE SMOOTH",
"288 96 OFFCURVE",
"280 104 OFFCURVE",
"280 136 CURVE SMOOTH",
"280 704 LINE",
"200 704 LINE",
"200 96 LINE SMOOTH",
"200 40 OFFCURVE",
"216 0 OFFCURVE",
"280 0 CURVE SMOOTH"
);
}
);
width = 512;
},
{
layerId = "4FBB1917-F682-4041-B654-F2E0D2EF1242";
paths = (
{
closed = 1;
nodes = (
"280 0 LINE SMOOTH",
"216 0 OFFCURVE",
"200 40 OFFCURVE",
"200 96 CURVE SMOOTH",
"200 760 LINE",
"208 768 LINE",
"320 768 LINE",
"328 760 LINE",
"328 200 LINE SMOOTH",
"328 176 OFFCURVE",
"336 168 OFFCURVE",
"360 168 CURVE SMOOTH",
"512 168 LINE",
"512 0 LINE"
);
}
);
width = 512;
}
);
},
{
glyphname = "behDotless-ar";
lastChange = "2022-04-26 20:57:32 +0000";
layers = (
{
anchors = (
{
name = bottom;
position = "{304, 0}";
},
{
name = top;
position = "{312, 247}";
}
);
layerId = m01;
paths = (
{
closed = 1;
nodes = (
"480 0 LINE SMOOTH",
"544 0 OFFCURVE",
"560 40 OFFCURVE",
"560 96 CURVE SMOOTH",
"560 224 LINE",
"552 232 LINE",
"488 232 LINE",
"480 224 LINE",
"480 136 LINE SMOOTH",
"480 104 OFFCURVE",
"472 96 OFFCURVE",
"440 96 CURVE SMOOTH",
"160 96 LINE SMOOTH",
"128 96 OFFCURVE",
"120 104 OFFCURVE",
"120 136 CURVE SMOOTH",
"120 224 LINE",
"112 232 LINE",
"48 232 LINE",
"40 224 LINE",
"40 96 LINE SMOOTH",
"40 40 OFFCURVE",
"56 0 OFFCURVE",
"120 0 CURVE SMOOTH"
);
}
);
width = 600;
},
{
anchors = (
{
name = bottom;
position = "{306, 0}";
},
{
name = top;
position = "{310, 312}";
}
);
layerId = "4FBB1917-F682-4041-B654-F2E0D2EF1242";
paths = (
{
closed = 1;
nodes = (
"496 0 LINE SMOOTH",
"560 0 OFFCURVE",
"576 40 OFFCURVE",
"576 96 CURVE SMOOTH",
"576 280 LINE",
"568 288 LINE",
"456 288 LINE",
"448 280 LINE",
"448 248 LINE SMOOTH",
"448 216 OFFCURVE",
"440 208 OFFCURVE",
"408 208 CURVE SMOOTH",
"192 208 LINE SMOOTH",
"160 208 OFFCURVE",
"152 216 OFFCURVE",
"152 248 CURVE SMOOTH",
"152 280 LINE",
"144 288 LINE",
"32 288 LINE",
"24 280 LINE",
"24 96 LINE SMOOTH",
"24 40 OFFCURVE",
"40 0 OFFCURVE",
"104 0 CURVE SMOOTH"
);
}
);
width = 600;
}
);
unicode = 066E;
},
{
glyphname = "behDotless-ar.fina";
lastChange = "2022-04-26 19:30:55 +0000";
layers = (
{
anchors = (
{
name = bottom;
position = "{304, 0}";
},
{
name = top;
position = "{304, 247}";
}
);
layerId = m01;
paths = (
{
closed = 1;
nodes = (
"480 0 LINE SMOOTH",
"496 0 OFFCURVE",
"510 11 OFFCURVE",
"520 23 CURVE",
"529 11 OFFCURVE",
"568 0 OFFCURVE",
"600 0 CURVE",
"600 96 LINE",
"568 96 OFFCURVE",
"560 104 OFFCURVE",
"560 136 CURVE SMOOTH",
"560 232 LINE",
"480 232 LINE",
"480 136 LINE SMOOTH",
"480 104 OFFCURVE",
"472 96 OFFCURVE",
"440 96 CURVE SMOOTH",
"160 96 LINE SMOOTH",
"128 96 OFFCURVE",
"120 104 OFFCURVE",
"120 136 CURVE SMOOTH",
"120 232 LINE",
"40 232 LINE",
"40 96 LINE SMOOTH",
"40 40 OFFCURVE",
"56 0 OFFCURVE",
"120 0 CURVE SMOOTH"
);
}
);
width = 600;
},
{
layerId = "4FBB1917-F682-4041-B654-F2E0D2EF1242";
width = 600;
}
);
},
{
glyphname = "behDotless-ar.medi";
lastChange = "2022-04-29 23:52:19 +0000";
layers = (
{
anchors = (
{
name = bottom;
position = "{261, 0}";
},
{
name = top;
position = "{261, 240}";
}
);
layerId = m01;
paths = (
{
closed = 1;
nodes = (
"488 0 LINE",
"496 8 LINE",
"496 71 LINE",
"488 80 LINE",
"320 80 LINE SMOOTH",
"304 80 OFFCURVE",
"296 88 OFFCURVE",
"296 104 CURVE SMOOTH",
"296 232 LINE",
"288 240 LINE",
"232 240 LINE",
"224 232 LINE",
"224 104 LINE SMOOTH",
"224 88 OFFCURVE",
"216 80 OFFCURVE",
"200 80 CURVE SMOOTH",
"24 80 LINE",
"16 72 LINE",
"16 8 LINE",
"24 0 LINE"
);
}
);
width = 512;
},
{
layerId = "4FBB1917-F682-4041-B654-F2E0D2EF1242";
width = 600;
}
);
},
{
glyphname = "behDotless-ar.init";
lastChange = "2022-04-26 19:30:55 +0000";
layers = (
{
anchors = (
{
name = bottom;
position = "{256, 0}";
},
{
name = top;
position = "{264, 247}";
}
);
layerId = m01;
paths = (
{
closed = 1;
nodes = (
"480 0 LINE SMOOTH",
"544 0 OFFCURVE",
"560 40 OFFCURVE",
"560 96 CURVE SMOOTH",
"560 232 LINE",
"480 232 LINE",
"480 136 LINE SMOOTH",
"480 104 OFFCURVE",
"472 96 OFFCURVE",
"440 96 CURVE SMOOTH",
"0 96 LINE",
"0 0 LINE"
);
}
);
width = 600;
},
{
layerId = "4FBB1917-F682-4041-B654-F2E0D2EF1242";
width = 600;
}
);
},
{
glyphname = "hah-ar";
lastChange = "2022-04-26 19:30:55 +0000";
layers = (
{
layerId = m01;
paths = (
{
closed = 1;
nodes = (
"120 0 OFFCURVE",
"429 136 OFFCURVE",
"576 136 CURVE",
"576 232 LINE",
"429 232 OFFCURVE",
"283 328 OFFCURVE",
"136 328 CURVE",
"136 232 LINE",
"216 232 OFFCURVE",
"296 211 OFFCURVE",
"375 191 CURVE",
"242 151 OFFCURVE",
"12 45 OFFCURVE",
"12 -53 CURVE SMOOTH",
"12 -256 OFFCURVE",
"188 -289 OFFCURVE",
"470 -256 CURVE",
"470 -180 LINE",
"211 -188 OFFCURVE",
"120 -133 OFFCURVE",
"120 -71 CURVE SMOOTH"
);
}
);
width = 600;
},
{
layerId = "4FBB1917-F682-4041-B654-F2E0D2EF1242";
width = 600;
}
);
unicode = 062D;
},
{
glyphname = "hah-ar.init";
lastChange = "2022-04-26 19:30:55 +0000";
layers = (
{
anchors = (
{
name = bottom;
position = "{344, 0}";
},
{
name = top;
position = "{363, 347}";
}
);
layerId = m01;
paths = (
{
closed = 1;
nodes = (
"147 0 OFFCURVE",
"429 136 OFFCURVE",
"576 136 CURVE",
"576 232 LINE",
"429 232 OFFCURVE",
"283 328 OFFCURVE",
"136 328 CURVE",
"136 232 LINE",
"216 232 OFFCURVE",
"296 211 OFFCURVE",
"375 191 CURVE",
"242 151 OFFCURVE",
"94 96 OFFCURVE",
"0 96 CURVE",
"0 0 LINE"
);
}
);
width = 600;
},
{
layerId = "4FBB1917-F682-4041-B654-F2E0D2EF1242";
width = 600;
}
);
},
{
glyphname = "dal-ar";
lastChange = "2022-04-29 20:13:22 +0000";
layers = (
{
layerId = m01;
paths = (
{
closed = 1;
nodes = (
"488 0 LINE",
"496 8 LINE",
"496 71 LINE",
"488 80 LINE",
"440 80 LINE SMOOTH",
"424 80 OFFCURVE",
"416 88 OFFCURVE",
"416 104 CURVE SMOOTH",
"416 224 LINE",
"408 232 LINE",
"352 232 LINE",
"344 224 LINE",
"344 104 LINE SMOOTH",
"344 88 OFFCURVE",
"336 80 OFFCURVE",
"320 80 CURVE SMOOTH",
"192 80 LINE",
"184 72 LINE",
"184 8 LINE",
"192 0 LINE"
);
}
);
width = 512;
},
{
layerId = "4FBB1917-F682-4041-B654-F2E0D2EF1242";
width = 600;
}
);
unicode = 062F;
},
{
glyphname = "seen-ar";
lastChange = "2022-04-26 19:30:55 +0000";
layers = (
{
anchors = (
{
name = top;
position = "{401, 250}";
}
);
layerId = m01;
paths = (
{
closed = 1;
nodes = (
"488 0 LINE SMOOTH",
"552 0 OFFCURVE",
"568 40 OFFCURVE",
"568 96 CURVE SMOOTH",
"568 232 LINE",
"488 232 LINE",
"488 136 LINE SMOOTH",
"488 104 OFFCURVE",
"480 96 OFFCURVE",
"460 96 CURVE SMOOTH",
"440 96 OFFCURVE",
"432 104 OFFCURVE",
"432 136 CURVE SMOOTH",
"432 232 LINE",
"352 232 LINE",
"352 136 LINE SMOOTH",
"352 104 OFFCURVE",
"344 96 OFFCURVE",
"324 96 CURVE SMOOTH",
"304 96 OFFCURVE",
"296 104 OFFCURVE",
"296 136 CURVE SMOOTH",
"296 232 LINE",
"216 232 LINE",
"216 -120 LINE SMOOTH",
"216 -152 OFFCURVE",
"208 -160 OFFCURVE",
"176 -160 CURVE SMOOTH",
"136 -160 LINE SMOOTH",
"104 -160 OFFCURVE",
"96 -152 OFFCURVE",
"96 -120 CURVE SMOOTH",
"96 -24 LINE",
"16 -24 LINE",
"16 -160 LINE SMOOTH",
"16 -216 OFFCURVE",
"32 -256 OFFCURVE",
"96 -256 CURVE SMOOTH",
"216 -256 LINE SMOOTH",
"280 -256 OFFCURVE",
"296 -216 OFFCURVE",
"296 -160 CURVE SMOOTH",
"296 0 LINE"
);
}
);
width = 600;
},
{
layerId = "4FBB1917-F682-4041-B654-F2E0D2EF1242";
width = 600;
}
);
unicode = 0633;
},
{
glyphname = "seen-ar.medi";
lastChange = "2022-04-26 19:30:52 +0000";
layers = (
{
anchors = (
{
name = bottom;
position = "{272, 0}";
},
{
name = top;
position = "{277, 247}";
}
);
layerId = m01;
paths = (
{
closed = 1;
nodes = (
"504 0 LINE",
"512 8 LINE",
"512 88 LINE",
"504 96 LINE",
"496 96 LINE SMOOTH",
"464 96 OFFCURVE",
"456 104 OFFCURVE",
"456 136 CURVE SMOOTH",
"456 224 LINE",
"448 232 LINE",
"384 232 LINE",
"376 224 LINE",
"376 136 LINE SMOOTH",
"376 103 OFFCURVE",
"360 96 OFFCURVE",
"336 96 CURVE SMOOTH",
"312 96 OFFCURVE",
"296 103 OFFCURVE",
"296 136 CURVE SMOOTH",
"296 224 LINE",
"288 232 LINE",
"224 232 LINE",
"216 224 LINE",
"216 136 LINE SMOOTH",
"216 103 OFFCURVE",
"200 96 OFFCURVE",
"176 96 CURVE SMOOTH",
"152 96 OFFCURVE",
"136 103 OFFCURVE",
"136 136 CURVE SMOOTH",
"136 224 LINE",
"128 232 LINE",
"64 232 LINE",
"56 224 LINE",
"56 136 LINE SMOOTH",
"56 103 OFFCURVE",
"48 96 OFFCURVE",
"16 96 CURVE SMOOTH",
"8 96 LINE",
"0 88 LINE",
"0 8 LINE",
"8 0 LINE"
);
}
);
width = 512;
},
{
layerId = "4FBB1917-F682-4041-B654-F2E0D2EF1242";
width = 600;
}
);
},
{
glyphname = "seen-ar.init";
lastChange = "2022-04-29 20:44:20 +0000";
layers = (
{
anchors = (
{
name = bottom;
position = "{295, 0}";
},
{
name = top;
position = "{291, 232}";
}
);
layerId = m01;
paths = (
{
closed = 1;
nodes = (
"448 0 LINE SMOOTH",
"480 0 OFFCURVE",
"496 16 OFFCURVE",
"496 48 CURVE SMOOTH",
"496 232 LINE",
"488 240 LINE",
"432 240 LINE",
"424 232 LINE",
"424 104 LINE SMOOTH",
"424 88 OFFCURVE",
"416 80 OFFCURVE",
"400 80 CURVE SMOOTH",
"352 80 LINE SMOOTH",
"336 80 OFFCURVE",
"328 88 OFFCURVE",
"328 104 CURVE SMOOTH",
"328 232 LINE",
"320 240 LINE",
"264 240 LINE",
"256 232 LINE",
"256 104 LINE SMOOTH",
"256 88 OFFCURVE",
"248 80 OFFCURVE",
"232 80 CURVE SMOOTH",
"184 80 LINE SMOOTH",
"168 80 OFFCURVE",
"160 88 OFFCURVE",
"160 104 CURVE SMOOTH",
"160 232 LINE",
"152 240 LINE",
"96 240 LINE",
"88 232 LINE",
"88 104 LINE SMOOTH",
"88 88 OFFCURVE",
"80 80 OFFCURVE",
"64 80 CURVE SMOOTH",
"24 80 LINE",
"16 72 LINE",
"16 8 LINE",
"24 0 LINE"
);
}
);
width = 512;
},
{
layerId = "4FBB1917-F682-4041-B654-F2E0D2EF1242";
width = 600;
}
);
},
{
glyphname = "ain-ar.medi";
lastChange = "2022-04-26 19:30:55 +0000";
layers = (
{
layerId = m01;
paths = (
{
closed = 1;
nodes = (
"75 0 OFFCURVE",
"186 28 OFFCURVE",
"294 89 CURVE",
"363 41 OFFCURVE",
"436 0 OFFCURVE",
"512 0 CURVE",
"512 96 LINE",
"475 96 OFFCURVE",
"428 116 OFFCURVE",
"376 143 CURVE",
"413 171 OFFCURVE",
"448 203 OFFCURVE",
"480 240 CURVE",
"480 336 LINE",
"40 336 LINE",
"40 240 LINE",
"93 240 OFFCURVE",
"156 193 OFFCURVE",
"225 140 CURVE",
"140 102 OFFCURVE",
"58 80 OFFCURVE",
"0 80 CURVE",
"0 0 LINE"
);
},
{
closed = 1;
nodes = (
"401 240 LINE",
"372 219 OFFCURVE",
"340 199 OFFCURVE",
"308 181 CURVE",
"207 240 LINE"
);
}
);
width = 512;
},
{
layerId = "4FBB1917-F682-4041-B654-F2E0D2EF1242";
width = 600;
}
);
},
{
glyphname = "fehDotless-ar";
lastChange = "2022-04-26 19:30:55 +0000";
layers = (
{
layerId = m01;
paths = (
{
closed = 1;
nodes = (
"456 0 LINE SMOOTH",
"520 0 OFFCURVE",
"564 12 OFFCURVE",
"564 55 CURVE SMOOTH",
"564 87 OFFCURVE",
"549 117 OFFCURVE",
"532 150 CURVE SMOOTH",
"467 274 LINE SMOOTH",
"455 297 OFFCURVE",
"434 311 OFFCURVE",
"412 311 CURVE SMOOTH",
"394 311 OFFCURVE",
"377 286 OFFCURVE",
"364 270 CURVE SMOOTH",
"310 205 LINE SMOOTH",
"291 182 OFFCURVE",
"288 170 OFFCURVE",
"288 150 CURVE SMOOTH",
"288 136 OFFCURVE",
"298 129 OFFCURVE",
"321 129 CURVE SMOOTH",
"414 129 LINE SMOOTH",
"434 129 OFFCURVE",
"447 132 OFFCURVE",
"447 116 CURVE SMOOTH",
"447 100 OFFCURVE",
"432 96 OFFCURVE",
"400 96 CURVE SMOOTH",
"160 96 LINE SMOOTH",
"128 96 OFFCURVE",
"120 104 OFFCURVE",
"120 136 CURVE SMOOTH",
"120 232 LINE",
"40 232 LINE",
"40 96 LINE SMOOTH",
"40 40 OFFCURVE",
"56 0 OFFCURVE",
"120 0 CURVE SMOOTH"
);
},
{
closed = 1;
nodes = (
"369 205 OFFCURVE",
"366 207 OFFCURVE",
"366 210 CURVE SMOOTH",
"366 213 OFFCURVE",
"369 218 OFFCURVE",
"374 223 CURVE SMOOTH",
"382 231 LINE SMOOTH",
"386 235 OFFCURVE",
"388 238 OFFCURVE",
"393 238 CURVE SMOOTH",
"399 238 OFFCURVE",
"402 237 OFFCURVE",
"408 233 CURVE SMOOTH",
"412 230 OFFCURVE",
"418 224 OFFCURVE",
"422 220 CURVE SMOOTH",
"426 216 OFFCURVE",
"431 212 OFFCURVE",
"431 209 CURVE SMOOTH",
"431 206 OFFCURVE",
"427 205 OFFCURVE",
"419 205 CURVE SMOOTH",
"399 205 OFFCURVE",
"381 205 OFFCURVE",
"375 205 CURVE SMOOTH"
);
}
);
width = 600;
},
{
layerId = "4FBB1917-F682-4041-B654-F2E0D2EF1242";
width = 600;
}
);
unicode = 06A1;
},
{
glyphname = "fehDotless-ar.fina";
lastChange = "2022-04-26 22:20:57 +0000";
layers = (
{
layerId = m01;
paths = (
{
closed = 1;
nodes = (
"480 0 LINE SMOOTH",
"544 0 OFFCURVE",
"560 40 OFFCURVE",
"560 80 CURVE SMOOTH",
"560 360 LINE SMOOTH",
"560 416 OFFCURVE",
"544 456 OFFCURVE",
"480 456 CURVE SMOOTH",
"360 456 LINE SMOOTH",
"296 456 OFFCURVE",
"280 416 OFFCURVE",
"280 360 CURVE SMOOTH",
"280 256 LINE SMOOTH",
"280 200 OFFCURVE",
"296 160 OFFCURVE",
"360 160 CURVE SMOOTH",
"472 160 LINE",
"480 152 LINE",
"480 120 LINE SMOOTH",
"480 104 OFFCURVE",
"472 96 OFFCURVE",
"440 96 CURVE SMOOTH",
"160 96 LINE SMOOTH",
"128 96 OFFCURVE",
"120 104 OFFCURVE",
"120 136 CURVE SMOOTH",
"120 160 LINE",
"112 168 LINE",
"49 168 LINE",
"40 160 LINE",
"40 96 LINE SMOOTH",
"40 40 OFFCURVE",
"56 0 OFFCURVE",
"120 0 CURVE SMOOTH"
);
},
{
closed = 1;
nodes = (
"376 256 OFFCURVE",
"360 264 OFFCURVE",
"360 308 CURVE SMOOTH",
"360 352 OFFCURVE",
"376 360 OFFCURVE",
"416 360 CURVE SMOOTH",
"464 360 OFFCURVE",
"480 352 OFFCURVE",
"480 308 CURVE SMOOTH",
"480 264 LINE",
"472 256 LINE",
"416 256 LINE SMOOTH"
);
}
);
width = 600;
},
{
layerId = "4FBB1917-F682-4041-B654-F2E0D2EF1242";
paths = (
{
closed = 1;
nodes = (
"480 0 LINE SMOOTH",
"544 0 OFFCURVE",
"560 40 OFFCURVE",
"560 80 CURVE SMOOTH",
"560 360 LINE SMOOTH",
"560 416 OFFCURVE",
"544 456 OFFCURVE",
"480 456 CURVE SMOOTH",
"360 456 LINE SMOOTH",
"296 456 OFFCURVE",
"280 416 OFFCURVE",
"280 360 CURVE SMOOTH",
"280 256 LINE SMOOTH",
"280 200 OFFCURVE",
"296 160 OFFCURVE",
"360 160 CURVE SMOOTH",
"472 160 LINE",
"480 152 LINE",
"480 120 LINE SMOOTH",
"480 104 OFFCURVE",
"472 96 OFFCURVE",
"440 96 CURVE SMOOTH",
"160 96 LINE SMOOTH",
"128 96 OFFCURVE",
"120 104 OFFCURVE",
"120 136 CURVE SMOOTH",
"120 160 LINE",
"112 168 LINE",
"49 168 LINE",
"40 160 LINE",
"40 96 LINE SMOOTH",
"40 40 OFFCURVE",
"56 0 OFFCURVE",
"120 0 CURVE SMOOTH"
);
},
{
closed = 1;
nodes = (
"376 256 OFFCURVE",
"360 264 OFFCURVE",
"360 308 CURVE SMOOTH",
"360 352 OFFCURVE",
"376 360 OFFCURVE",
"416 360 CURVE SMOOTH",
"464 360 OFFCURVE",
"480 352 OFFCURVE",
"480 308 CURVE SMOOTH",
"480 264 LINE",
"472 256 LINE",
"416 256 LINE SMOOTH"
);
}
);
width = 600;
}
);
},
{
glyphname = "fehDotless-ar.init";
lastChange = "2022-04-30 04:07:11 +0000";
layers = (
{
anchors = (
{
name = top;
position = "{344, 512}";
}
);
layerId = m01;
paths = (
{
closed = 1;
nodes = (
"400 0 LINE SMOOTH",
"456 0 OFFCURVE",
"480 24 OFFCURVE",
"480 72 CURVE SMOOTH",
"480 440 LINE SMOOTH",
"480 488 OFFCURVE",
"456 512 OFFCURVE",
"408 512 CURVE SMOOTH",
"280 512 LINE SMOOTH",
"232 512 OFFCURVE",
"208 488 OFFCURVE",
"208 440 CURVE SMOOTH",
"208 288 LINE SMOOTH",
"208 240 OFFCURVE",
"232 216 OFFCURVE",
"280 216 CURVE SMOOTH",
"400 216 LINE",
"408 208 LINE",
"408 104 LINE SMOOTH",
"408 88 OFFCURVE",
"400 80 OFFCURVE",
"384 80 CURVE SMOOTH",
"24 80 LINE",
"16 72 LINE",
"16 9 LINE",
"24 0 LINE"
);
},
{
closed = 1;
nodes = (
"288 296 OFFCURVE",
"280 304 OFFCURVE",
"280 319 CURVE SMOOTH",
"280 408 LINE SMOOTH",
"280 424 OFFCURVE",
"288 432 OFFCURVE",
"304 432 CURVE SMOOTH",
"385 432 LINE SMOOTH",
"400 432 OFFCURVE",
"408 424 OFFCURVE",
"408 408 CURVE SMOOTH",
"408 304 LINE",
"400 296 LINE",
"304 296 LINE SMOOTH"
);
}
);
width = 512;
},
{
layerId = "4FBB1917-F682-4041-B654-F2E0D2EF1242";
width = 600;
}
);
},
{
glyphname = "kaf-ar.medi";
lastChange = "2022-04-30 05:15:03 +0000";
layers = (
{
layerId = m01;
paths = (
{
closed = 1;
nodes = (
"488 0 LINE",
"496 8 LINE",
"496 72 LINE",
"488 80 LINE",
"464 80 LINE SMOOTH",
"448 80 OFFCURVE",
"440 88 OFFCURVE",
"440 104 CURVE SMOOTH",
"440 224 LINE SMOOTH",
"440 272 OFFCURVE",
"416 296 OFFCURVE",
"368 296 CURVE SMOOTH",
"160 296 LINE SMOOTH",
"144 296 OFFCURVE",
"136 304 OFFCURVE",
"136 320 CURVE SMOOTH",
"136 409 LINE SMOOTH",
"136 424 OFFCURVE",
"144 432 OFFCURVE",
"160 432 CURVE SMOOTH",
"282 432 LINE",
"290 440 LINE",
"290 504 LINE",
"282 512 LINE",
"136 512 LINE SMOOTH",
"88 512 OFFCURVE",
"64 488 OFFCURVE",
"64 440 CURVE SMOOTH",
"64 288 LINE SMOOTH",
"64 240 OFFCURVE",
"89 216 OFFCURVE",
"136 216 CURVE SMOOTH",
"344 216 LINE SMOOTH",
"360 216 OFFCURVE",
"368 208 OFFCURVE",
"368 192 CURVE SMOOTH",
"368 104 LINE SMOOTH",
"368 88 OFFCURVE",
"360 80 OFFCURVE",
"344 80 CURVE SMOOTH",
"24 80 LINE",
"16 72 LINE",
"16 8 LINE",
"24 0 LINE"
);
}
);
width = 512;
},
{
layerId = "4FBB1917-F682-4041-B654-F2E0D2EF1242";
width = 600;
}
);
},
{
glyphname = "kaf-ar.init";
lastChange = "2022-04-30 04:06:39 +0000";
layers = (
{
layerId = m01;
paths = (
{
closed = 1;
nodes = (
"424 0 LINE",
"472 0 OFFCURVE",
"496 24 OFFCURVE",
"496 72 CURVE SMOOTH",
"496 224 LINE SMOOTH",
"496 272 OFFCURVE",
"472 296 OFFCURVE",
"424 296 CURVE SMOOTH",
"160 296 LINE SMOOTH",
"144 296 OFFCURVE",
"136 304 OFFCURVE",
"136 320 CURVE SMOOTH",
"136 409 LINE SMOOTH",
"136 424 OFFCURVE",
"144 432 OFFCURVE",
"160 432 CURVE SMOOTH",
"282 432 LINE",
"290 440 LINE",
"290 504 LINE",
"282 512 LINE",
"136 512 LINE SMOOTH",
"88 512 OFFCURVE",
"64 488 OFFCURVE",
"64 440 CURVE SMOOTH",
"64 288 LINE SMOOTH",
"64 240 OFFCURVE",
"89 216 OFFCURVE",
"136 216 CURVE SMOOTH",
"400 216 LINE SMOOTH",
"416 216 OFFCURVE",
"424 208 OFFCURVE",
"424 192 CURVE SMOOTH",
"424 104 LINE SMOOTH",
"424 88 OFFCURVE",
"416 80 OFFCURVE",
"400 80 CURVE SMOOTH",
"24 80 LINE",
"16 72 LINE",
"16 8 LINE",
"24 0 LINE"
);
}
);
width = 512;
},
{
layerId = "4FBB1917-F682-4041-B654-F2E0D2EF1242";
paths = (
{
closed = 1;
nodes = (
"424 0 LINE",
"472 0 OFFCURVE",
"496 24 OFFCURVE",
"496 72 CURVE SMOOTH",
"496 240 LINE SMOOTH",
"496 288 OFFCURVE",
"472 312 OFFCURVE",
"424 312 CURVE SMOOTH",
"184 312 LINE SMOOTH",
"168 312 OFFCURVE",
"160 320 OFFCURVE",
"160 336 CURVE SMOOTH",
"160 345 LINE SMOOTH",
"160 360 OFFCURVE",
"168 368 OFFCURVE",
"184 368 CURVE SMOOTH",
"282 368 LINE",
"290 376 LINE",
"290 488 LINE",
"282 496 LINE",
"136 496 LINE SMOOTH",
"88 496 OFFCURVE",
"64 472 OFFCURVE",
"64 424 CURVE SMOOTH",
"64 256 LINE SMOOTH",
"64 208 OFFCURVE",
"89 184 OFFCURVE",
"136 184 CURVE SMOOTH",
"376 184 LINE SMOOTH",
"392 184 OFFCURVE",
"400 176 OFFCURVE",
"400 160 CURVE SMOOTH",
"400 152 LINE SMOOTH",
"400 136 OFFCURVE",
"392 128 OFFCURVE",
"376 128 CURVE SMOOTH",
"24 128 LINE",
"16 120 LINE",
"16 8 LINE",
"24 0 LINE"
);
}
);
width = 512;
}
);
},
{
glyphname = "lam-ar";
lastChange = "2022-04-26 22:40:23 +0000";
layers = (
{
layerId = m01;
paths = (
{
closed = 1;
nodes = (
"440 -256 LINE SMOOTH",
"504 -256 OFFCURVE",
"520 -216 OFFCURVE",
"520 -160 CURVE SMOOTH",
"520 760 LINE",
"512 768 LINE",
"448 768 LINE",
"440 760 LINE",
"440 -120 LINE SMOOTH",
"440 -152 OFFCURVE",
"432 -160 OFFCURVE",
"400 -160 CURVE SMOOTH",
"200 -160 LINE SMOOTH",
"168 -160 OFFCURVE",
"160 -152 OFFCURVE",
"160 -120 CURVE SMOOTH",
"160 -80 LINE",
"152 -72 LINE",
"89 -72 LINE",
"80 -80 LINE",
"80 -160 LINE SMOOTH",
"80 -216 OFFCURVE",
"96 -256 OFFCURVE",
"160 -256 CURVE SMOOTH"
);
}
);
width = 600;
},
{
layerId = "4FBB1917-F682-4041-B654-F2E0D2EF1242";
width = 600;
}
);
unicode = 0644;
},
{
glyphname = "lam-ar.fina";
lastChange = "2022-04-26 22:41:28 +0000";
layers = (
{
layerId = m01;
paths = (
{
closed = 1;
nodes = (
"440 -256 LINE SMOOTH",
"504 -256 OFFCURVE",
"520 -216 OFFCURVE",
"520 -160 CURVE SMOOTH",
"520 -8 LINE",
"528 0 LINE",
"600 0 LINE",
"600 96 LINE",
"560 96 LINE SMOOTH",
"528 96 OFFCURVE",
"520 104 OFFCURVE",
"520 136 CURVE SMOOTH",
"520 760 LINE",
"512 768 LINE",
"448 768 LINE",
"440 760 LINE",
"440 -120 LINE SMOOTH",
"440 -152 OFFCURVE",
"432 -160 OFFCURVE",
"400 -160 CURVE SMOOTH",
"200 -160 LINE SMOOTH",
"168 -160 OFFCURVE",
"160 -152 OFFCURVE",
"160 -120 CURVE SMOOTH",
"160 -80 LINE",
"152 -72 LINE",
"89 -72 LINE",
"80 -80 LINE",
"80 -160 LINE SMOOTH",
"80 -216 OFFCURVE",
"96 -256 OFFCURVE",
"160 -256 CURVE SMOOTH"
);
}
);
width = 600;
},
{
layerId = "4FBB1917-F682-4041-B654-F2E0D2EF1242";
width = 600;
}
);
},
{
glyphname = "lam-ar.medi";
lastChange = "2022-04-26 19:30:55 +0000";
layers = (
{
layerId = m01;
paths = (
{
closed = 1;
nodes = (
"248 0 LINE SMOOTH",
"280 0 OFFCURVE",
"301 43 OFFCURVE",
"312 47 CURVE",
"323 43 OFFCURVE",
"336 0 OFFCURVE",
"376 0 CURVE SMOOTH",
"600 0 LINE",
"600 96 LINE",
"392 96 LINE SMOOTH",
"360 96 OFFCURVE",
"352 104 OFFCURVE",
"352 136 CURVE SMOOTH",
"352 768 LINE",
"272 768 LINE",
"272 136 LINE SMOOTH",
"272 104 OFFCURVE",
"264 96 OFFCURVE",
"232 96 CURVE SMOOTH",
"0 96 LINE",
"0 0 LINE"
);
}
);
width = 600;
},
{
layerId = "4FBB1917-F682-4041-B654-F2E0D2EF1242";
width = 600;
}
);
},
{
glyphname = "meem-ar.init";
lastChange = "2022-04-26 19:30:55 +0000";
layers = (
{
layerId = m01;
paths = (
{
closed = 1;
nodes = (
"46 0 OFFCURVE",
"145 27 OFFCURVE",
"177 30 CURVE SMOOTH",
"209 33 OFFCURVE",
"230 110 OFFCURVE",
"250 145 CURVE",
"270 170 LINE",
"250 63 LINE",
"312 43 OFFCURVE",
"357 -4 OFFCURVE",
"437 4 CURVE SMOOTH",
"517 12 OFFCURVE",
"542 69 OFFCURVE",
"557 75 CURVE SMOOTH",
"572 81 OFFCURVE",
"538 170 OFFCURVE",
"531 182 CURVE SMOOTH",
"524 194 OFFCURVE",
"313 442 OFFCURVE",
"298 449 CURVE",
"251 453 LINE",
"210 414 LINE",
"167 323 OFFCURVE",
"96 153 OFFCURVE",
"81 141 CURVE SMOOTH",
"66 129 OFFCURVE",
"15 106 OFFCURVE",
"0 108 CURVE",
"0 0 LINE"
);
},
{
closed = 1;
nodes = (
"355 144 OFFCURVE",
"336 171 OFFCURVE",
"336 205 CURVE SMOOTH",
"336 238 OFFCURVE",
"355 265 OFFCURVE",
"378 265 CURVE SMOOTH",
"400 265 OFFCURVE",
"419 238 OFFCURVE",
"419 205 CURVE SMOOTH",
"419 171 OFFCURVE",
"400 144 OFFCURVE",
"378 144 CURVE SMOOTH"
);
}
);
width = 600;
},
{
layerId = "4FBB1917-F682-4041-B654-F2E0D2EF1242";
width = 600;
}
);
},
{
glyphname = "noonghunna-ar";
lastChange = "2022-04-29 22:09:53 +0000";
layers = (
{
anchors = (
{
name = top;
position = "{261, 171}";
}
);
layerId = m01;
paths = (
{
closed = 1;
nodes = (
"392 -256 LINE SMOOTH",
"456 -256 OFFCURVE",
"472 -216 OFFCURVE",
"472 -160 CURVE SMOOTH",
"472 200 LINE",
"464 208 LINE",
"408 208 LINE",
"400 200 LINE",
"400 -136 LINE SMOOTH",
"400 -168 OFFCURVE",
"392 -176 OFFCURVE",
"360 -176 CURVE SMOOTH",
"152 -176 LINE SMOOTH",
"120 -176 OFFCURVE",
"112 -168 OFFCURVE",
"112 -136 CURVE SMOOTH",
"112 72 LINE",
"104 80 LINE",
"48 80 LINE",
"40 72 LINE",
"40 -160 LINE SMOOTH",
"40 -216 OFFCURVE",
"56 -256 OFFCURVE",
"120 -256 CURVE SMOOTH"
);
}
);
width = 512;
},
{
layerId = "4FBB1917-F682-4041-B654-F2E0D2EF1242";
width = 600;
}
);
unicode = 06BA;
},
{
glyphname = "noonghunna-ar.fina";
lastChange = "2022-04-30 04:03:35 +0000";
layers = (
{
anchors = (
{
name = top;
position = "{232, 208}";
}
);
layerId = m01;
paths = (
{
closed = 1;
nodes = (
"352 -256 LINE SMOOTH",
"416 -256 OFFCURVE",
"432 -216 OFFCURVE",
"432 -160 CURVE SMOOTH",
"432 -8 LINE",
"440 0 LINE",
"488 0 LINE",
"496 8 LINE",
"496 72 LINE",
"488 80 LINE",
"456 80 LINE SMOOTH",
"440 80 OFFCURVE",
"432 88 OFFCURVE",
"432 104 CURVE SMOOTH",
"432 200 LINE",
"424 208 LINE",
"368 208 LINE",
"360 200 LINE",
"360 -136 LINE SMOOTH",
"360 -168 OFFCURVE",
"352 -176 OFFCURVE",
"320 -176 CURVE SMOOTH",
"152 -176 LINE SMOOTH",
"120 -176 OFFCURVE",
"112 -168 OFFCURVE",
"112 -136 CURVE SMOOTH",
"112 72 LINE",
"104 80 LINE",
"48 80 LINE",
"40 72 LINE",
"40 -160 LINE SMOOTH",
"40 -216 OFFCURVE",
"56 -256 OFFCURVE",
"120 -256 CURVE SMOOTH"
);
}
);
width = 512;
},
{
anchors = (
{
name = top;
position = "{230, 208}";
}
);
layerId = "4FBB1917-F682-4041-B654-F2E0D2EF1242";
paths = (
{
closed = 1;
nodes = (
"352 -256 LINE SMOOTH",
"416 -256 OFFCURVE",
"432 -216 OFFCURVE",
"432 -160 CURVE SMOOTH",
"432 -8 LINE",
"440 0 LINE",
"488 0 LINE",
"496 8 LINE",
"496 120 LINE",
"488 128 LINE",
"456 128 LINE SMOOTH",
"440 128 OFFCURVE",
"432 136 OFFCURVE",
"432 152 CURVE SMOOTH",
"432 200 LINE",
"424 208 LINE",
"344 208 LINE",
"336 200 LINE",
"336 -88 LINE SMOOTH",
"336 -120 OFFCURVE",
"328 -128 OFFCURVE",
"296 -128 CURVE SMOOTH",
"176 -128 LINE SMOOTH",
"144 -128 OFFCURVE",
"136 -120 OFFCURVE",
"136 -88 CURVE SMOOTH",
"136 72 LINE",
"128 80 LINE",
"48 80 LINE",
"40 72 LINE",
"40 -160 LINE SMOOTH",
"40 -216 OFFCURVE",
"56 -256 OFFCURVE",
"120 -256 CURVE SMOOTH"
);
}
);
width = 512;
}
);
},
{
glyphname = "heh-ar.medi";
lastChange = "2022-04-29 20:44:48 +0000";
layers = (
{
layerId = m01;
paths = (
{
closed = 1;
nodes = (
"152 0 LINE",
"160 -8 LINE",
"160 -168 LINE SMOOTH",
"160 -216 OFFCURVE",
"184 -240 OFFCURVE",
"232 -240 CURVE SMOOTH",
"368 -240 LINE SMOOTH",
"416 -240 OFFCURVE",
"440 -216 OFFCURVE",
"440 -168 CURVE SMOOTH",
"440 -8 LINE",
"448 0 LINE",
"576 0 LINE",
"584 8 LINE",
"584 72 LINE",
"576 80 LINE",
"448 80 LINE",
"440 88 LINE",
"440 248 LINE SMOOTH",
"440 296 OFFCURVE",
"416 320 OFFCURVE",
"368 320 CURVE SMOOTH",
"232 320 LINE SMOOTH",
"184 320 OFFCURVE",
"160 296 OFFCURVE",
"160 248 CURVE SMOOTH",
"160 88 LINE",
"152 80 LINE",
"24 80 LINE",
"16 72 LINE",
"16 8 LINE",
"24 0 LINE"
);
},
{
closed = 1;
nodes = (
"232 88 LINE",
"232 216 LINE SMOOTH",
"232 232 OFFCURVE",
"240 240 OFFCURVE",
"256 240 CURVE SMOOTH",
"344 240 LINE SMOOTH",
"360 240 OFFCURVE",
"368 232 OFFCURVE",
"368 216 CURVE SMOOTH",
"368 104 LINE SMOOTH",
"368 88 OFFCURVE",
"360 80 OFFCURVE",
"344 80 CURVE SMOOTH",
"240 80 LINE"
);
},
{
closed = 1;
nodes = (
"240 -160 OFFCURVE",
"232 -152 OFFCURVE",
"232 -136 CURVE SMOOTH",
"232 -8 LINE",
"240 0 LINE",
"344 0 LINE SMOOTH",
"360 0 OFFCURVE",
"368 -8 OFFCURVE",
"368 -24 CURVE SMOOTH",
"368 -136 LINE SMOOTH",
"368 -152 OFFCURVE",
"360 -160 OFFCURVE",
"344 -160 CURVE SMOOTH",
"256 -160 LINE SMOOTH"
);
}
);
width = 600;
},
{
layerId = "4FBB1917-F682-4041-B654-F2E0D2EF1242";
width = 600;
}
);
},
{
glyphname = "heh-ar.init";
lastChange = "2022-04-26 19:30:55 +0000";
layers = (
{
layerId = m01;
paths = (
{
closed = 1;
nodes = (
"105 0 OFFCURVE",
"264 19 OFFCURVE",
"321 71 CURVE",
"361 47 OFFCURVE",
"415 22 OFFCURVE",
"442 22 CURVE SMOOTH",
"494 22 OFFCURVE",
"565 83 OFFCURVE",
"565 155 CURVE SMOOTH",
"565 240 OFFCURVE",
"405 348 OFFCURVE",
"321 348 CURVE SMOOTH",
"289 348 OFFCURVE",
"207 277 OFFCURVE",
"207 218 CURVE SMOOTH",
"207 193 OFFCURVE",
"236 176 OFFCURVE",
"236 150 CURVE SMOOTH",
"236 126 OFFCURVE",
"192 96 OFFCURVE",
"0 96 CURVE",
"0 0 LINE"
);
},
{
closed = 1;
nodes = (
"312 177 OFFCURVE",
"292 206 OFFCURVE",
"292 223 CURVE SMOOTH",
"292 239 OFFCURVE",
"320 252 OFFCURVE",
"335 252 CURVE SMOOTH",
"350 252 OFFCURVE",
"370 231 OFFCURVE",
"370 215 CURVE SMOOTH",
"370 198 OFFCURVE",
"342 177 OFFCURVE",
"327 177 CURVE SMOOTH"
);
},
{
closed = 1;
nodes = (
"422 103 OFFCURVE",
"391 128 OFFCURVE",
"391 149 CURVE SMOOTH",
"391 169 OFFCURVE",
"422 186 OFFCURVE",
"441 186 CURVE SMOOTH",
"459 186 OFFCURVE",
"482 169 OFFCURVE",
"482 149 CURVE SMOOTH",
"482 128 OFFCURVE",
"459 103 OFFCURVE",
"441 103 CURVE SMOOTH"
);
}
);
width = 600;
},
{
layerId = "4FBB1917-F682-4041-B654-F2E0D2EF1242";
width = 600;
}
);
},
{
glyphname = "waw-ar";
lastChange = "2022-04-26 22:43:06 +0000";
layers = (
{
layerId = m01;
paths = (
{
closed = 1;
nodes = (
"392 -256 LINE SMOOTH",
"456 -256 OFFCURVE",
"472 -216 OFFCURVE",
"472 -160 CURVE SMOOTH",
"472 200 LINE SMOOTH",
"472 256 OFFCURVE",
"456 296 OFFCURVE",
"392 296 CURVE SMOOTH",
"272 296 LINE SMOOTH",
"208 296 OFFCURVE",
"192 256 OFFCURVE",
"192 200 CURVE SMOOTH",
"192 96 LINE SMOOTH",
"192 40 OFFCURVE",
"208 0 OFFCURVE",
"272 0 CURVE SMOOTH",
"384 0 LINE",
"392 -8 LINE",
"392 -120 LINE SMOOTH",
"392 -152 OFFCURVE",
"384 -160 OFFCURVE",
"352 -160 CURVE SMOOTH",
"160 -160 LINE SMOOTH",
"128 -160 OFFCURVE",
"120 -152 OFFCURVE",
"120 -120 CURVE SMOOTH",
"120 -80 LINE",
"112 -72 LINE",
"49 -72 LINE",
"40 -80 LINE",
"40 -160 LINE SMOOTH",
"40 -216 OFFCURVE",
"56 -256 OFFCURVE",
"120 -256 CURVE SMOOTH"
);
},
{
closed = 1;
nodes = (
"280 96 OFFCURVE",
"272 104 OFFCURVE",
"272 154 CURVE SMOOTH",
"272 192 OFFCURVE",
"288 200 OFFCURVE",
"328 200 CURVE SMOOTH",
"376 200 OFFCURVE",
"392 192 OFFCURVE",
"392 160 CURVE SMOOTH",
"392 104 LINE",
"384 96 LINE",
"312 96 LINE SMOOTH"
);
}
);
width = 512;
},
{
layerId = "4FBB1917-F682-4041-B654-F2E0D2EF1242";
paths = (
{
closed = 1;
nodes = (
"392 -256 LINE SMOOTH",
"456 -256 OFFCURVE",
"472 -216 OFFCURVE",
"472 -160 CURVE SMOOTH",
"472 296 LINE SMOOTH",
"472 352 OFFCURVE",
"456 392 OFFCURVE",
"392 392 CURVE SMOOTH",
"272 392 LINE SMOOTH",
"208 392 OFFCURVE",
"192 352 OFFCURVE",
"192 296 CURVE SMOOTH",
"192 96 LINE SMOOTH",
"192 40 OFFCURVE",
"208 0 OFFCURVE",
"272 0 CURVE SMOOTH",
"344 0 LINE",
"352 -8 LINE",
"352 -56 LINE SMOOTH",
"352 -80 OFFCURVE",
"344 -88 OFFCURVE",
"314 -88 CURVE SMOOTH",
"200 -88 LINE SMOOTH",
"176 -88 OFFCURVE",
"168 -80 OFFCURVE",
"168 -56 CURVE SMOOTH",
"168 -8 LINE",
"160 0 LINE",
"48 0 LINE",
"40 -8 LINE",
"40 -160 LINE SMOOTH",
"40 -216 OFFCURVE",
"56 -256 OFFCURVE",
"120 -256 CURVE SMOOTH"
);
},
{
closed = 1;
nodes = (
"313 168 OFFCURVE",
"302 176 OFFCURVE",
"302 196 CURVE SMOOTH",
"302 216 OFFCURVE",
"313 224 OFFCURVE",
"326 224 CURVE SMOOTH",
"344 224 OFFCURVE",
"352 216 OFFCURVE",
"352 192 CURVE SMOOTH",
"352 176 LINE",
"344 168 LINE",
"326 168 LINE SMOOTH"
);
}
);
width = 512;
}
);
unicode = 0648;
},
{
glyphname = "waw-ar.fina";
lastChange = "2022-04-29 22:25:01 +0000";
layers = (
{
layerId = m01;
paths = (
{
closed = 1;
nodes = (
"424 -256 LINE SMOOTH",
"488 -256 OFFCURVE",
"504 -216 OFFCURVE",
"504 -160 CURVE SMOOTH",
"504 -8 LINE",
"512 0 LINE",
"576 0 LINE",
"584 8 LINE",
"584 72 LINE",
"576 80 LINE",
"512 80 LINE",
"504 88 LINE",
"504 216 LINE SMOOTH",
"504 264 OFFCURVE",
"480 288 OFFCURVE",
"435 288 CURVE SMOOTH",
"296 288 LINE SMOOTH",
"248 288 OFFCURVE",
"224 264 OFFCURVE",
"224 216 CURVE SMOOTH",
"224 72 LINE SMOOTH",
"224 24 OFFCURVE",
"248 0 OFFCURVE",
"296 0 CURVE SMOOTH",
"424 0 LINE",
"432 -8 LINE",
"432 -152 LINE SMOOTH",
"432 -168 OFFCURVE",
"424 -176 OFFCURVE",
"408 -176 CURVE SMOOTH",
"144 -176 LINE SMOOTH",
"112 -176 OFFCURVE",
"104 -168 OFFCURVE",
"104 -136 CURVE SMOOTH",
"104 -80 LINE",
"96 -72 LINE",
"40 -72 LINE",
"32 -80 LINE",
"32 -160 LINE SMOOTH",
"32 -216 OFFCURVE",
"48 -256 OFFCURVE",
"104 -256 CURVE SMOOTH"
);
},
{
closed = 1;
nodes = (
"304 80 OFFCURVE",
"296 88 OFFCURVE",
"296 103 CURVE SMOOTH",
"296 184 LINE SMOOTH",
"296 200 OFFCURVE",
"304 208 OFFCURVE",
"320 208 CURVE SMOOTH",
"409 208 LINE SMOOTH",
"424 208 OFFCURVE",
"432 200 OFFCURVE",
"432 184 CURVE SMOOTH",
"432 88 LINE",
"424 80 LINE",
"320 80 LINE SMOOTH"
);
}
);
width = 600;
},
{
layerId = "4FBB1917-F682-4041-B654-F2E0D2EF1242";
width = 600;
}
);
},
{
glyphname = "dotabove-ar";
lastChange = "2022-04-29 23:50:22 +0000";
layers = (
{
anchors = (
{
name = _top;
position = "{64, 0}";
}
);
layerId = m01;
paths = (
{
closed = 1;
nodes = (
"99 80 OFFCURVE",
"128 109 OFFCURVE",
"128 144 CURVE SMOOTH",
"128 179 OFFCURVE",
"99 208 OFFCURVE",
"64 208 CURVE SMOOTH",
"29 208 OFFCURVE",
"0 179 OFFCURVE",
"0 144 CURVE SMOOTH",
"0 109 OFFCURVE",
"29 80 OFFCURVE",
"64 80 CURVE SMOOTH"
);
}
);
width = 128;
},
{
anchors = (
{
name = _top;
position = "{55, 0}";
}
);
layerId = "4FBB1917-F682-4041-B654-F2E0D2EF1242";
paths = (
{
closed = 1;
nodes = (
"85 101 OFFCURVE",
"110 126 OFFCURVE",
"110 156 CURVE SMOOTH",
"110 186 OFFCURVE",
"85 209 OFFCURVE",
"55 209 CURVE SMOOTH",
"25 209 OFFCURVE",
"0 186 OFFCURVE",
"0 156 CURVE SMOOTH",
"0 126 OFFCURVE",
"25 101 OFFCURVE",
"55 101 CURVE SMOOTH"
);
}
);
width = 110;
}
);
},
{
glyphname = "dotbelow-ar";
lastChange = "2022-04-26 21:24:10 +0000";
layers = (
{
anchors = (
{
name = _bottom;
position = "{64, 0}";
}
);
layerId = m01;
paths = (
{
closed = 1;
nodes = (
"97 -189 OFFCURVE",
"124 -162 OFFCURVE",
"124 -129 CURVE SMOOTH",
"124 -96 OFFCURVE",
"97 -71 OFFCURVE",
"64 -71 CURVE SMOOTH",
"31 -71 OFFCURVE",
"4 -96 OFFCURVE",
"4 -129 CURVE SMOOTH",
"4 -162 OFFCURVE",
"31 -189 OFFCURVE",
"64 -189 CURVE SMOOTH"
);
}
);
width = 128;
},
{
anchors = (
{
name = _bottom;
position = "{85, 0}";
}
);
layerId = "4FBB1917-F682-4041-B654-F2E0D2EF1242";
paths = (
{
closed = 1;
nodes = (
"133 -220 OFFCURVE",
"171 -181 OFFCURVE",
"171 -134 CURVE SMOOTH",
"171 -87 OFFCURVE",
"133 -51 OFFCURVE",
"86 -51 CURVE SMOOTH",
"39 -51 OFFCURVE",
"0 -87 OFFCURVE",
"0 -134 CURVE SMOOTH",
"0 -181 OFFCURVE",
"39 -220 OFFCURVE",
"86 -220 CURVE SMOOTH"
);
}
);
width = 171;
}
);
},
{
glyphname = "twodotshorizontalabove-ar";
lastChange = "2022-04-26 20:57:17 +0000";
layers = (
{
anchors = (
{
name = _top;
position = "{156, 258}";
}
);
layerId = m01;
paths = (
{
closed = 1;
nodes = (
"93 291 OFFCURVE",
"120 318 OFFCURVE",
"120 351 CURVE SMOOTH",
"120 384 OFFCURVE",
"93 409 OFFCURVE",
"60 409 CURVE SMOOTH",
"27 409 OFFCURVE",
"0 384 OFFCURVE",
"0 351 CURVE SMOOTH",
"0 318 OFFCURVE",
"27 291 OFFCURVE",
"60 291 CURVE SMOOTH"
);
},
{
closed = 1;
nodes = (
"285 291 OFFCURVE",
"312 318 OFFCURVE",
"312 351 CURVE SMOOTH",
"312 384 OFFCURVE",
"285 409 OFFCURVE",
"252 409 CURVE SMOOTH",
"219 409 OFFCURVE",
"192 384 OFFCURVE",
"192 351 CURVE SMOOTH",
"192 318 OFFCURVE",
"219 291 OFFCURVE",
"252 291 CURVE SMOOTH"
);
}
);
width = 312;
},
{
layerId = "4FBB1917-F682-4041-B654-F2E0D2EF1242";
width = 600;
}
);
},
{
glyphname = "twodotshorizontalbelow-ar";
lastChange = "2022-04-29 23:53:05 +0000";
layers = (
{
anchors = (
{
name = _bottom;
position = "{160, 0}";
}
);
layerId = m01;
paths = (
{
closed = 1;
nodes = (
"99 -208 OFFCURVE",
"128 -179 OFFCURVE",
"128 -144 CURVE SMOOTH",
"128 -109 OFFCURVE",
"99 -80 OFFCURVE",
"64 -80 CURVE SMOOTH",
"29 -80 OFFCURVE",
"0 -109 OFFCURVE",
"0 -144 CURVE SMOOTH",
"0 -179 OFFCURVE",
"29 -208 OFFCURVE",
"64 -208 CURVE SMOOTH"
);
},
{
closed = 1;
nodes = (
"291 -208 OFFCURVE",
"320 -179 OFFCURVE",
"320 -144 CURVE SMOOTH",
"320 -109 OFFCURVE",
"291 -80 OFFCURVE",
"256 -80 CURVE SMOOTH",
"221 -80 OFFCURVE",
"192 -109 OFFCURVE",
"192 -144 CURVE SMOOTH",
"192 -179 OFFCURVE",
"221 -208 OFFCURVE",
"256 -208 CURVE SMOOTH"
);
}
);
width = 320;
},
{
layerId = "4FBB1917-F682-4041-B654-F2E0D2EF1242";
width = 600;
}
);
},
{
glyphname = "threedotsupabove-ar";
lastChange = "2022-04-26 20:57:17 +0000";
layers = (
{
anchors = (
{
name = _top;
position = "{156, 258}";
}
);
layerId = m01;
paths = (
{
closed = 1;
nodes = (
"93 291 OFFCURVE",
"120 318 OFFCURVE",
"120 351 CURVE SMOOTH",
"120 384 OFFCURVE",
"93 409 OFFCURVE",
"60 409 CURVE SMOOTH",
"27 409 OFFCURVE",
"0 384 OFFCURVE",
"0 351 CURVE SMOOTH",
"0 318 OFFCURVE",
"27 291 OFFCURVE",
"60 291 CURVE SMOOTH"
);
},
{
closed = 1;
nodes = (
"285 291 OFFCURVE",
"312 318 OFFCURVE",
"312 351 CURVE SMOOTH",
"312 384 OFFCURVE",
"285 409 OFFCURVE",
"252 409 CURVE SMOOTH",
"219 409 OFFCURVE",
"192 384 OFFCURVE",
"192 351 CURVE SMOOTH",
"192 318 OFFCURVE",
"219 291 OFFCURVE",
"252 291 CURVE SMOOTH"
);
},
{
closed = 1;
nodes = (
"190 439 OFFCURVE",
"217 466 OFFCURVE",
"217 499 CURVE SMOOTH",
"217 532 OFFCURVE",
"190 557 OFFCURVE",
"157 557 CURVE SMOOTH",
"124 557 OFFCURVE",
"97 532 OFFCURVE",
"97 499 CURVE SMOOTH",
"97 466 OFFCURVE",
"124 439 OFFCURVE",
"157 439 CURVE SMOOTH"
);
}
);
width = 312;
},
{
layerId = "4FBB1917-F682-4041-B654-F2E0D2EF1242";
width = 600;
}
);
},
{
glyphname = "hamzaabove-ar";
lastChange = "2022-04-26 19:59:36 +0000";
layers = (
{
anchors = (
{
name = _top;
position = "{90, 600}";
}
);
layerId = m01;
paths = (
{
closed = 1;
nodes = (
"4 671 LINE",
"74 698 LINE",
"14 717 LINE",
"0 760 LINE",
"54 797 LINE",
"158 782 LINE",
"134 749 LINE",
"84 762 LINE",
"52 756 LINE",
"98 707 LINE",
"143 714 LINE",
"158 680 LINE",
"27 632 LINE"
);
}
);
width = 164;
},
{
layerId = "4FBB1917-F682-4041-B654-F2E0D2EF1242";
width = 600;
}
);
unicode = 0654;
},
{
glyphname = "hamzabelow-ar";
lastChange = "2022-04-26 22:56:38 +0000";
layers = (
{
anchors = (
{
name = _bottom;
position = "{78, 0}";
}
);
layerId = m01;
paths = (
{
closed = 1;
nodes = (
"4 -201 LINE",
"74 -174 LINE",
"14 -155 LINE",
"0 -112 LINE",
"54 -75 LINE",
"158 -90 LINE",
"134 -123 LINE",
"84 -110 LINE",
"52 -116 LINE",
"98 -165 LINE",
"143 -158 LINE",
"158 -192 LINE",
"27 -240 LINE"
);
}
);
width = 158;
},
{
layerId = "4FBB1917-F682-4041-B654-F2E0D2EF1242";
width = 600;
}
);
unicode = 0655;
},
